<?xml version="1.0" encoding="UTF-8"?><svg id="logos" xmlns="http://www.w3.org/2000/svg" width="444.5719" height="444.5719" viewBox="0 0 444.5719 444.5719"><defs><style>.cls-1{fill:#499254;}</style></defs><path class="cls-1" d="M170.8757,197.4611c5.0859-3.77,7.6288-9.8695,7.611-18.3342,0-4.6947-.8536-8.5536-2.5429-11.5589-1.6894-3.0053-3.9478-5.3704-6.7753-7.0598-2.8275-1.6894-6.064-2.863-9.7272-3.5211-3.77-.658-7.5933-.9958-11.4344-.978h-41.4519v47.1246l44.8484-.0356c7.8956,0,14.3864-1.885,19.4723-5.6371Z"/><path class="cls-1" d="M310.1334,199.7194c-6.4019,0-11.7189,1.0848-15.9335,3.2365-4.2324,2.1695-7.6111,4.8369-10.1541,8.0378-2.5429,3.2009-4.3212,6.5797-5.3526,10.154-1.0314,3.5744-1.6538,6.7753-1.8317,9.585h65.1743c-1.9028-10.1362-5.246-17.854-10.0295-23.1177-4.8014-5.2637-12.0923-7.8956-21.8729-7.8956Z"/><path class="cls-1" d="M177.9354,239.9266c-5.8328-4.428-13.5505-6.6331-23.1355-6.6331h-48.2449v55.3047l47.3914-.0178c4.179,.0178,8.3401-.4091,12.4124-1.2626,3.9478-.8536,7.4333-2.2584,10.4386-4.2324,3.0053-1.9739,5.406-4.6591,7.202-8.0378,1.7783-3.3787,2.6852-7.7178,2.6852-12.9815,0-10.3318-2.9164-17.7295-8.7492-22.1396Z"/><path class="cls-1" d="M0,0V444.5719H444.5719V0H0ZM269.9974,131.7889h81.4278v22.5842h-81.4278v-22.5842Zm-44.9373,159.2278c-3.9478,7.4332-9.2649,13.4972-15.9512,18.1919-6.6863,4.7125-14.2974,8.1801-22.851,10.4385-8.6069,2.2584-17.4805,3.3965-26.372,3.3787H62.2401V121.5637h94.8005c9.585,0,18.3341,.8536,26.2475,2.5429,7.9134,1.6894,14.6709,4.4635,20.308,8.3224s10.0118,8.9804,13.1238,15.3822c3.112,6.4019,4.6591,14.2974,4.6591,23.7046,0,10.154-2.3118,18.6187-6.9175,25.3939s-11.4344,12.3235-20.4503,16.6448c12.4124,3.5743,21.6773,9.8339,27.7946,18.7609s9.176,19.7034,9.176,32.3115c0,10.154-1.9739,18.9565-5.9217,26.3898Zm157.0405-34.8188h-105.2391c.5513,12.9281,3.8411,22.3353,9.8517,28.1503h0c6.0106,5.8328,14.6708,8.7492,25.963,8.7492,8.0912,0,15.0443-2.0273,20.8771-6.064,5.8328-4.0367,9.4071-8.3224,10.7231-12.8392h35.2634c-5.6371,17.4984-14.2974,29.9997-25.963,37.5219-11.6655,7.5222-25.7674,11.2921-42.3232,11.2921-11.4699,0-21.8196-1.8316-31.0311-5.4949-9.2115-3.6633-17.0182-8.8915-23.42-15.6667-6.4019-6.7753-11.3455-14.8487-14.8132-24.2559-3.4677-9.4071-5.2104-19.7567-5.2104-31.0311,0-10.9009,1.7783-21.0549,5.3527-30.4621,3.5743-9.4072,8.6602-17.5339,15.2399-24.3981,6.5797-6.8642,14.4397-12.2702,23.5623-16.218s19.2411-5.9217,30.3376-5.9217c12.4125,0,23.2244,2.4007,32.4538,7.2021,9.2115,4.8013,16.787,11.2388,22.7087,19.33s10.2074,17.3027,12.8392,27.6523c2.6319,10.3497,3.5744,21.1617,2.8275,32.4538Z"/></svg>