<?xml version="1.0" encoding="UTF-8"?><svg id="logos" xmlns="http://www.w3.org/2000/svg" width="444.5719" height="444.5719" viewBox="0 0 444.5719 444.5719"><defs><style>.cls-1{fill:#499254;fill-rule:evenodd;}</style></defs><path class="cls-1" d="M0,0V444.5719H444.5719V0H0ZM278.7643,395.8804c-9.05,1.7417-12.262-3.8063-12.262-8.575,0-5.8469,.2189-25.0801,.2189-48.9199,0-16.6343-5.7035-27.518-12.1065-33.0234,39.7264-4.415,81.42-19.4894,81.42-87.9949,0-19.4675-6.9011-35.3858-18.3301-47.8514,1.8337-4.5114,7.9543-22.6422-1.7745-47.1935,0,0-14.9451-4.7949-48.9899,18.2808-14.2445-3.9552-29.5005-5.9334-44.6439-6.0024-15.1652,.069-30.4202,2.0472-44.6439,6.0024-34.0656-23.0756-49.0381-18.2808-49.0381-18.2808-9.7014,24.5513-3.582,42.6821-1.7483,47.1935-11.407,12.4656-18.3552,28.384-18.3552,47.8514,0,68.3347,41.629,83.6335,81.2274,88.1339-5.0948,4.4577-9.7015,12.3156-11.3217,23.8398-10.1612,4.5649-35.9901,12.4338-51.8975-14.8171,0,0-9.4189-17.116-27.3144-18.3771,0,0-17.416-.2244-1.225,10.84,0,0,11.6905,5.4846,19.7992,26.085,0,0,10.4666,34.6808,60.0706,23.9044,.0865,14.8817,.2408,26.096,.2408,30.3293,0,4.726-3.2545,10.2313-12.1711,8.5958-70.868-23.5836-121.9587-90.4219-121.9587-169.2014,0-98.4976,79.848-178.3358,178.3138-178.3358s178.3369,79.8381,178.3369,178.3358c0,78.7587-51.048,145.5532-121.847,169.1806Z"/></svg>