<?xml version="1.0" encoding="utf-8"?>
<!-- Generator: Adobe Illustrator 26.3.1, SVG Export Plug-In . SVG Version: 6.00 Build 0)  -->
<svg version="1.1" xmlns="http://www.w3.org/2000/svg" xmlns:xlink="http://www.w3.org/1999/xlink" x="0px" y="0px"
	 viewBox="0 0 82.7 158.3" style="enable-background:new 0 0 82.7 158.3;" xml:space="preserve">
<style type="text/css">
	.st0{display:none;}
	.st1{display:inline;}
	.st2{fill:#030302;}
	.st3{display:inline;fill:#060606;}
	.st4{display:inline;fill:#050300;}
	.st5{display:inline;fill:#499254;}
	.st6{fill:#499254;}
	.st7{fill-rule:evenodd;clip-rule:evenodd;fill:#499254;}
	.st8{fill:#DAE596;}
</style>
<g id="Layer_1" class="st0">
	<g class="st1">
		<rect x="-1209.7" y="5" class="st2" width="1347.2" height="874.8"/>
		
			<image style="overflow:visible;" width="6720" height="4480" xlink:href="../../../../../../Downloads/_30A7315.jpg"  transform="matrix(0.151 0 0 0.151 -1040.9834 104.0658)">
		</image>
	</g>
	<g>
		<rect x="-1209.7" y="5" class="st3" width="1347.2" height="874.8"/>
		
			<image style="display:inline;overflow:visible;opacity:0.29;" width="3840" height="3109" xlink:href="../../../../../../../../Volumes/LACIE SHARE/LaCie/4 Pre-college shit/Papa/All pictures/_MG_6592.JPG"  transform="matrix(0.2814 0 0 0.2814 -942.9253 5.0092)">
		</image>
		<rect x="-1003.4" y="685.8" class="st3" width="288.5" height="193.9"/>
	</g>
	<g>
		<rect x="-1209.7" y="5" class="st4" width="1347.2" height="875.8"/>
		
			<image style="display:inline;overflow:visible;" width="3584" height="5036" xlink:href="../../../../../../../../Volumes/LACIE SHARE/LaCie/4 Pre-college shit/Papa/Forge/_MG_9437.JPG"  transform="matrix(0.1739 0 0 0.1739 -485.7503 5.0092)">
		</image>
	</g>
	
		<image style="overflow:visible;" width="1978" height="1286" xlink:href="CB6D835EC803EE33.png"  transform="matrix(0.6813 0 0 0.6813 -1209.6837 4.988)">
	</image>
</g>
<g id="logos" class="st0">
	<g>
		<path class="st5" d="M-2692.3-763.1c5.1-3.8,7.6-9.9,7.6-18.3c0-4.7-0.9-8.6-2.5-11.6c-1.7-3-3.9-5.4-6.8-7.1
			c-2.8-1.7-6.1-2.9-9.7-3.5c-3.8-0.7-7.6-1-11.4-1h-41.5v47.1l44.8,0C-2703.9-757.4-2697.4-759.3-2692.3-763.1z"/>
		<path class="st5" d="M-2553-760.8c-6.4,0-11.7,1.1-15.9,3.2c-4.2,2.2-7.6,4.8-10.2,8s-4.3,6.6-5.4,10.2c-1,3.6-1.7,6.8-1.8,9.6
			h65.2c-1.9-10.1-5.2-17.9-10-23.1C-2536-758.2-2543.3-760.8-2553-760.8z"/>
		<path class="st5" d="M-2685.2-720.6c-5.8-4.4-13.6-6.6-23.1-6.6h-48.2v55.3l47.4,0c4.2,0,8.3-0.4,12.4-1.3
			c3.9-0.9,7.4-2.3,10.4-4.2c3-2,5.4-4.7,7.2-8c1.8-3.4,2.7-7.7,2.7-13C-2676.5-708.8-2679.4-716.2-2685.2-720.6z"/>
		<path class="st5" d="M-2863.2-960.5v444.6h444.6v-444.6H-2863.2z M-2593.2-828.7h81.4v22.6h-81.4V-828.7z M-2638.1-669.5
			c-3.9,7.4-9.3,13.5-16,18.2c-6.7,4.7-14.3,8.2-22.9,10.4c-8.6,2.3-17.5,3.4-26.4,3.4h-97.6v-201.5h94.8c9.6,0,18.3,0.9,26.2,2.5
			c7.9,1.7,14.7,4.5,20.3,8.3c5.6,3.9,10,9,13.1,15.4c3.1,6.4,4.7,14.3,4.7,23.7c0,10.2-2.3,18.6-6.9,25.4s-11.4,12.3-20.5,16.6
			c12.4,3.6,21.7,9.8,27.8,18.8c6.1,8.9,9.2,19.7,9.2,32.3C-2632.2-685.7-2634.2-676.9-2638.1-669.5z M-2481.1-704.3h-105.2
			c0.6,12.9,3.8,22.3,9.9,28.2h0c6,5.8,14.7,8.7,26,8.7c8.1,0,15-2,20.9-6.1c5.8-4,9.4-8.3,10.7-12.8h35.3
			c-5.6,17.5-14.3,30-26,37.5s-25.8,11.3-42.3,11.3c-11.5,0-21.8-1.8-31-5.5c-9.2-3.7-17-8.9-23.4-15.7s-11.3-14.8-14.8-24.3
			c-3.5-9.4-5.2-19.8-5.2-31c0-10.9,1.8-21.1,5.4-30.5s8.7-17.5,15.2-24.4c6.6-6.9,14.4-12.3,23.6-16.2s19.2-5.9,30.3-5.9
			c12.4,0,23.2,2.4,32.5,7.2c9.2,4.8,16.8,11.2,22.7,19.3s10.2,17.3,12.8,27.7C-2481.3-726.4-2480.3-715.6-2481.1-704.3z"/>
	</g>
	<g>
		<path class="st5" d="M-2565.9-869.6c-25-0.9-50-0.3-75-0.3v-0.1h-70c-7.1-0.1-14.2,0.9-21,3c-25,8.5-41.7,32.3-41.1,58.7
			c0.3,46.8,0,93.7,0,140.5c-0.1,7,0.9,14,3,20.7c8.5,25,32.3,41.7,58.7,41.1c46.8-0.3,93.7,0,140.5,0c7,0.1,14-0.9,20.7-3
			c24.9-8.5,41.6-32.1,41.1-58.4c-0.3-47-0.1-94.1,0-141.1c0.3-10-2-19.8-6.6-28.7C-2526.3-857.2-2543-868.9-2565.9-869.6z
			 M-2640.7-655.3c-45.8,0-82.9-37.1-83-82.9c0.1-45.7,37.2-82.7,82.9-82.7c45.6,0.1,82.6,37.1,82.7,82.7
			C-2558.1-692.6-2595.1-655.5-2640.7-655.3z M-2554.5-803.3c-11.5,0.1-20.9-9.2-21.1-20.7c0.1-11.5,9.4-20.9,21-21
			c11.5,0.1,20.8,9.5,20.9,21C-2533.8-812.5-2543.1-803.4-2554.5-803.3z"/>
		<path class="st5" d="M-2640.5-792.2c-0.1,0-0.2,0-0.4,0c-29.7-0.1-54,23.9-54.1,53.6c0,0.1,0,0.2,0,0.2
			c-0.2,29.8,23.8,54.1,53.6,54.3c0.1,0,0.2,0,0.3,0c29.8,0.1,54.1-23.9,54.3-53.8c0-0.1,0-0.2,0-0.3
			C-2586.7-767.8-2610.7-792.1-2640.5-792.2z"/>
		<path class="st5" d="M-2863.2-960.5v444.6h444.6v-444.6H-2863.2z M-2480.4-666.1c0.1,5.7-0.5,11.5-1.7,17.1
			c-8.3,35.9-30.2,58.9-65.7,68.8c-4.4,1.2-8.9,1.8-13.5,2.7h-159.4c-3.2-0.6-6.4-1-9.5-1.7c-35.8-8.5-58.9-30.3-68.8-65.8
			c-1.2-4.4-1.8-8.9-2.6-13.4v-159.4c0.2-1.1,0.4-2.2,0.7-3.3c2.1-7.9,3.1-16.4,6.6-23.7c16.1-34.7,43.5-53.3,81.9-53.9
			c47.6-0.6,95.3-0.2,142.9,0c6,0,11.9,0.6,17.7,1.7c41.5,8.2,71.4,44.6,71.3,86.9C-2480.3-762.1-2480.3-714.1-2480.4-666.1z"/>
	</g>
	<path class="st6" d="M-2863.2-960.5v444.6h444.6v-444.6H-2863.2z M-2617.5-668c0,1.8-0.6,3.5-1.6,5c-2.7,3.8-8,4.6-11.8,1.8
		l-58.9-43.3v158.6h-49.7c-11.6,0-21-9.4-21-21v-182.9c0,0,0,0,0,0v0.5l-65.4-48.1c-4.3-3.2-6.9-8.2-6.9-13.6V-881l72.3,49.7v0.5
		c0,0,0,0,0,0v-0.5l143,98.1V-668z M-2449-567.2c0,11.8-9.6,21.4-21.3,21.4h-49.4v-158.6l-58.8,43.3c-1.4,1.1-3.2,1.6-5,1.6
		c-4.7,0-8.4-3.8-8.4-8.4v-65.3l143-98.1V-567.2z"/>
	<path class="st6" d="M-2863.2-960.5v444.6h444.6v-444.6H-2863.2z M-2736.2-882.4c17.6,0,31,13.7,31,31.6c0,17.8-14.1,32-31.7,31.9
		c-16.8-0.1-31.6-15.1-31.6-31.8C-2768.5-868.1-2753.9-882.5-2736.2-882.4z M-2714.3-615.7c-15-0.4-29.9-0.3-44.9,0
		c-6.9,0.1-9.6-2.2-9.6-9.4c0.3-26.9,0.1-53.7,0.1-80.6c0-26.6,0.2-53.2-0.1-79.8c-0.1-7.4,2.6-10.2,9.9-10c15,0.3,29.9,0.3,44.9,0
		c6.9-0.1,9.9,2.6,9.9,9.6c-0.1,53.5-0.1,106.9,0,160.4C-2704-618.2-2707-615.5-2714.3-615.7z M-2510.6-616c-11.9-0.1-23.8,0-35.7,0
		c-9.9,0-11.3-1.3-11.3-11.1c0-28.4,0-56.9-0.1-85.3c0-4.3-0.5-8.8-1.4-13c-3.8-17-13.1-24.4-29.2-23.7
		c-16.2,0.7-26.6,9.6-28.4,26.2c-1.5,13.8-1.5,27.8-1.7,41.7c-0.3,18.6-0.3,37.2,0,55.9c0.1,7.2-2.7,9.7-9.6,9.5
		c-11.6-0.3-23.3-0.2-34.9-0.1c-5.7,0.1-8.3-1.9-8.3-8.1c0.2-54.3,0.2-108.6,0-162.9c0-6.4,2.8-8.1,8.4-8.1
		c11.1,0.1,22.2,0.1,33.3,0c6.4-0.1,9.8,2.4,9.3,9.2c-0.2,3.3,0,6.6,0,11.6c13.2-14.7,29.4-19.7,46.7-20.2
		c38-1.1,66.5,10.8,69.4,55.8c2.4,38.1,1.4,76.4,2,114.7C-2501.9-618-2504.9-615.9-2510.6-616z"/>
	<path class="st7" d="M-2863.2-960.5v444.6h444.6v-444.6H-2863.2z M-2584.4-564.6c-9.1,1.7-12.3-3.8-12.3-8.6
		c0-5.8,0.2-25.1,0.2-48.9c0-16.6-5.7-27.5-12.1-33c39.7-4.4,81.4-19.5,81.4-88c0-19.5-6.9-35.4-18.3-47.9c1.8-4.5,8-22.6-1.8-47.2
		c0,0-14.9-4.8-49,18.3c-14.2-4-29.5-5.9-44.6-6c-15.2,0.1-30.4,2-44.6,6c-34.1-23.1-49-18.3-49-18.3c-9.7,24.6-3.6,42.7-1.7,47.2
		c-11.4,12.5-18.4,28.4-18.4,47.9c0,68.3,41.6,83.6,81.2,88.1c-5.1,4.5-9.7,12.3-11.3,23.8c-10.2,4.6-36,12.4-51.9-14.8
		c0,0-9.4-17.1-27.3-18.4c0,0-17.4-0.2-1.2,10.8c0,0,11.7,5.5,19.8,26.1c0,0,10.5,34.7,60.1,23.9c0.1,14.9,0.2,26.1,0.2,30.3
		c0,4.7-3.3,10.2-12.2,8.6c-70.9-23.6-122-90.4-122-169.2c0-98.5,79.8-178.3,178.3-178.3c98.5,0,178.3,79.8,178.3,178.3
		C-2462.6-655.1-2513.6-588.3-2584.4-564.6z"/>
</g>
<g id="Layer_3">
	<path id="light" class="st8" d="M68.4,131.3c0,14.9-12.1,27-27,27s-27-12.1-27-27"/>
	<rect id="handle" x="39.8" class="st6" width="3.2" height="84.4"/>
	<polygon id="body" class="st6" points="43,84.4 39.7,84.4 0,131.3 82.7,131.3 	"/>
</g>
</svg>
