<?xml version="1.0" encoding="UTF-8"?><svg id="logos" xmlns="http://www.w3.org/2000/svg" width="444.5719" height="444.5719" viewBox="0 0 444.5719 444.5719"><defs><style>.cls-1{fill:#499254;}</style></defs><path class="cls-1" d="M297.3177,90.9191c-25.0261-.9322-50.0316-.3314-75.0162-.3314v-.1451h-69.9614c-7.1064-.1381-14.1879,.8835-20.9656,3.0247-25.0301,8.5195-41.6701,32.2563-41.144,58.6913,.3109,46.8412,0,93.6823,0,140.5234-.1077,7.0247,.9207,14.0206,3.0453,20.717,8.5306,25.0217,32.2603,41.6568,58.6913,41.1439,46.8411-.3108,93.7031,0,140.5442,0,7.0252,.1172,14.0226-.9113,20.717-3.0453,24.936-8.4624,41.5602-32.051,41.144-58.3805-.2693-47.0484-.1036-94.0966,0-141.145,.2757-9.9644-1.9992-19.8339-6.6088-28.6723-10.8557-19.9505-27.5743-31.6763-50.4459-32.3807Zm-74.8298,214.2554c-45.7821-.0114-82.9124-37.0859-82.9923-82.868,.1482-45.6818,37.1862-82.6548,82.868-82.723,45.6286,.1478,82.5845,37.0944,82.7437,82.723-.0679,45.6417-36.9781,82.663-82.6194,82.868Zm86.2035-147.9401c-11.5264,.0579-20.9421-9.1914-21.0899-20.717,.1122-11.5436,9.4427-20.8741,20.9863-20.9863,11.5353,.1462,20.8349,9.4919,20.9242,21.0277-.1686,11.4047-9.415,20.5868-20.8206,20.6756Z"/><path class="cls-1" d="M222.6335,168.3179c-.1176-.0004-.2352-.0004-.3528,0-29.7481-.1258-53.9658,23.8878-54.0916,53.6359-.0004,.0761-.0005,.1522-.0005,.2284-.1945,29.8163,23.8189,54.145,53.6353,54.3395,.1109,.0007,.2216,.0011,.3325,.0011,29.8282,.1373,54.12-23.9319,54.2573-53.76,.0004-.0969,.0006-.1937,.0005-.2906,.1031-29.8054-23.9753-54.0511-53.7808-54.1542Z"/><path class="cls-1" d="M0,0V444.5719H444.5719V0H0ZM382.8168,294.4223c.0656,5.7413-.4971,11.4727-1.678,17.0916-8.2868,35.9094-30.1846,58.8569-65.6937,68.8426-4.3713,1.2431-8.9498,1.7817-13.4661,2.6518H142.6239c-3.1904-.5594-6.4016-.9736-9.5298-1.6988-35.8196-8.4526-58.857-30.3297-68.7805-65.7972-1.243-4.3713-1.7816-8.9498-2.6311-13.4246V142.7324c.2279-1.098,.3937-2.2167,.6837-3.294,2.0717-7.9346,3.149-16.3664,6.5673-23.7003,16.0972-34.6802,43.5057-53.3049,81.915-53.8642,47.6491-.5801,95.2982-.2072,142.9473,0,5.9532-.0073,11.8928,.5686,17.7338,1.7195,41.4936,8.1704,71.38,44.5969,71.2872,86.8871,.0967,47.9805,.0967,95.9611,0,143.9417Z"/></svg>