<?xml version="1.0" encoding="UTF-8"?><svg id="logos" xmlns="http://www.w3.org/2000/svg" width="444.5719" height="444.5719" viewBox="0 0 444.5719 444.5719"><defs><style>.cls-1{fill:#499254;}</style></defs><path class="cls-1" d="M0,0V444.5719H444.5719V0H0ZM126.9655,78.1066c17.5552,.0448,30.9885,13.7225,30.9871,31.5507-.0015,17.8279-14.1257,32.0118-31.7273,31.8614-16.7679-.1434-31.5715-15.0615-31.5764-31.8206-.0049-17.2958,14.665-31.6365,32.3166-31.5915Zm21.9315,266.7415c-14.965-.362-29.9493-.3268-44.9164-.013-6.9092,.1449-9.6375-2.1841-9.5546-9.3935,.3088-26.8557,.1233-53.7169,.123-80.576-.0003-26.6009,.1882-53.204-.1216-79.8013-.0866-7.4376,2.6272-10.1619,9.9493-10.0074,14.9647,.3158,29.9435,.2733,44.9105,.0184,6.8843-.1172,9.901,2.6028,9.8896,9.5518-.0876,53.4598-.1033,106.9199,.0203,160.3796,.017,7.3537-3.0255,10.0174-10.3,9.8414Zm203.7316-.2888c-11.8898-.1246-23.7817-.0374-35.6727-.05-9.944-.0105-11.3191-1.2831-11.3344-11.0683-.0445-28.4454,.0383-56.8911-.0846-85.336-.0187-4.3442-.4573-8.7754-1.3985-13.0114-3.7753-16.9907-13.0881-24.418-29.2189-23.7043-16.178,.7156-26.5981,9.6115-28.3683,26.1805-1.4758,13.813-1.5001,27.8055-1.6946,41.7252-.2601,18.6151-.2849,37.2407,.0484,55.8535,.1286,7.1784-2.696,9.6785-9.6224,9.4804-11.6235-.3324-23.2634-.2271-34.8944-.1097-5.697,.0574-8.2753-1.8604-8.2528-8.1412,.1937-54.3042,.1901-108.6096,.0071-162.9139-.0214-6.3521,2.8215-8.1465,8.3981-8.1015,11.1147,.0895,22.2316,.1125,33.3458-.0077,6.3514-.0687,9.8044,2.3561,9.3058,9.188-.2391,3.2767-.0412,6.5854-.0412,11.632,13.2232-14.7,29.4104-19.7283,46.686-20.2276,38.035-1.0993,66.4826,10.8377,69.3595,55.7618,2.4404,38.1071,1.3734,76.4367,1.9777,114.666,.0969,6.1297-2.8485,8.2438-8.5455,8.1841Z"/></svg>