<?xml version="1.0" encoding="UTF-8"?><svg id="logos" xmlns="http://www.w3.org/2000/svg" width="444.5719" height="444.5719" viewBox="0 0 444.5719 444.5719"><defs><style>.cls-1{fill:#499254;}</style></defs><path class="cls-1" d="M0,0V444.5719H444.5719V0H0ZM245.7154,292.5477c-.0043,1.7837-.5748,3.52-1.6292,4.9586-2.7495,3.7512-8.0196,4.563-11.7707,1.8135l-58.8565-43.2919v158.6442h-49.7341c-11.6245,0-21.048-9.4236-21.048-21.0481V210.7379l-.0002-.0007v.4526l-65.4017-48.1468c-4.3108-3.1707-6.8557-8.2032-6.8547-13.5544V79.5618l72.2564,49.7032v.4988l.0002,.0002v-.5402l143.0386,98.0665v65.2574Zm168.4363,100.767c0,11.7913-9.5557,21.3517-21.347,21.3574h-49.4249v-158.6133l-58.8462,43.2919c-1.4387,1.0545-3.1748,1.625-4.9585,1.6293-4.651,.011-8.4303-3.7504-8.4414-8.4014v-65.2883l143.0179-98.0665V393.3148Z"/></svg>